<?xml version="1.0" encoding="UTF-8" standalone="no"?>
<!DOCTYPE svg PUBLIC "-//W3C//DTD SVG 1.1//EN"
 "http://www.w3.org/Graphics/SVG/1.1/DTD/svg11.dtd">
<!-- Generated by graphviz version 2.43.0 (0)
 -->
<!-- Title: pastafarianism Pages: 1 -->
<svg width="2062pt" height="352pt"
 viewBox="0.00 0.00 2062.05 352.00" xmlns="http://www.w3.org/2000/svg" xmlns:xlink="http://www.w3.org/1999/xlink">
<g id="graph0" class="graph" transform="scale(1 1) rotate(0) translate(4 348)">
<title>pastafarianism</title>
<polygon fill="white" stroke="transparent" points="-4,4 -4,-348 2058.05,-348 2058.05,4 -4,4"/>
<!-- Intervention Task -->
<g id="node1" class="node">
<title>Intervention Task</title>
<polygon fill="orange" stroke="black" points="940.31,-344 830.31,-344 830.31,-308 940.31,-308 940.31,-344"/>
<text text-anchor="middle" x="885.31" y="-323.8" font-family="Times,serif" font-size="9.00">Ⓜ Intervention Task</text>
</g>
<!-- Detect Aruco Pos -->
<g id="node2" class="node">
<title>Detect Aruco Pos</title>
<ellipse fill="gray" stroke="black" cx="434.31" cy="-254" rx="56.01" ry="18"/>
<text text-anchor="middle" x="434.31" y="-251.8" font-family="Times,serif" font-size="9.00">Detect Aruco Pos</text>
</g>
<!-- Intervention Task&#45;&gt;Detect Aruco Pos -->
<g id="edge1" class="edge">
<title>Intervention Task&#45;&gt;Detect Aruco Pos</title>
<path fill="none" stroke="black" d="M830,-319.5C754.74,-311.55 616.08,-295.2 499.31,-272 494.63,-271.07 489.77,-270 484.93,-268.86"/>
<polygon fill="black" stroke="black" points="485.6,-265.42 475.06,-266.45 483.94,-272.22 485.6,-265.42"/>
</g>
<!-- Move to Object -->
<g id="node3" class="node">
<title>Move to Object</title>
<polygon fill="orange" stroke="black" points="607.81,-272 508.81,-272 508.81,-236 607.81,-236 607.81,-272"/>
<text text-anchor="middle" x="558.31" y="-251.8" font-family="Times,serif" font-size="9.00">Ⓜ Move to Object</text>
</g>
<!-- Intervention Task&#45;&gt;Move to Object -->
<g id="edge2" class="edge">
<title>Intervention Task&#45;&gt;Move to Object</title>
<path fill="none" stroke="black" d="M830.21,-313.2C771.33,-300.6 678.31,-280.69 617.8,-267.73"/>
<polygon fill="black" stroke="black" points="618.52,-264.31 608.01,-265.64 617.05,-271.15 618.52,-264.31"/>
</g>
<!-- Pick up Object -->
<g id="node10" class="node">
<title>Pick up Object</title>
<polygon fill="orange" stroke="black" points="872.81,-272 775.81,-272 775.81,-236 872.81,-236 872.81,-272"/>
<text text-anchor="middle" x="824.31" y="-251.8" font-family="Times,serif" font-size="9.00">Ⓜ Pick up Object</text>
</g>
<!-- Intervention Task&#45;&gt;Pick up Object -->
<g id="edge9" class="edge">
<title>Intervention Task&#45;&gt;Pick up Object</title>
<path fill="none" stroke="black" d="M870.23,-307.7C862.92,-299.3 854,-289.07 845.98,-279.86"/>
<polygon fill="black" stroke="black" points="848.43,-277.34 839.22,-272.1 843.15,-281.94 848.43,-277.34"/>
</g>
<!-- Set Drop position -->
<g id="node15" class="node">
<title>Set Drop position</title>
<ellipse fill="gray" stroke="black" cx="947.31" cy="-254" rx="56.66" ry="18"/>
<text text-anchor="middle" x="947.31" y="-251.8" font-family="Times,serif" font-size="9.00">Set Drop position</text>
</g>
<!-- Intervention Task&#45;&gt;Set Drop position -->
<g id="edge14" class="edge">
<title>Intervention Task&#45;&gt;Set Drop position</title>
<path fill="none" stroke="black" d="M900.64,-307.7C908.26,-299.09 917.59,-288.55 925.91,-279.17"/>
<polygon fill="black" stroke="black" points="928.58,-281.43 932.59,-271.62 923.34,-276.79 928.58,-281.43"/>
</g>
<!-- Move to drop off -->
<g id="node16" class="node">
<title>Move to drop off</title>
<polygon fill="orange" stroke="black" points="1376.31,-272 1272.31,-272 1272.31,-236 1376.31,-236 1376.31,-272"/>
<text text-anchor="middle" x="1324.31" y="-251.8" font-family="Times,serif" font-size="9.00">Ⓜ Move to drop off</text>
</g>
<!-- Intervention Task&#45;&gt;Move to drop off -->
<g id="edge15" class="edge">
<title>Intervention Task&#45;&gt;Move to drop off</title>
<path fill="none" stroke="black" d="M940.47,-316.21C1022.54,-303.12 1176.33,-278.6 1262.24,-264.9"/>
<polygon fill="black" stroke="black" points="1262.79,-268.35 1272.11,-263.32 1261.69,-261.44 1262.79,-268.35"/>
</g>
<!-- Drop Object -->
<g id="node20" class="node">
<title>Drop Object</title>
<polygon fill="orange" stroke="black" points="1831.31,-272 1745.31,-272 1745.31,-236 1831.31,-236 1831.31,-272"/>
<text text-anchor="middle" x="1788.31" y="-251.8" font-family="Times,serif" font-size="9.00">Ⓜ Drop Object</text>
</g>
<!-- Intervention Task&#45;&gt;Drop Object -->
<g id="edge19" class="edge">
<title>Intervention Task&#45;&gt;Drop Object</title>
<path fill="none" stroke="black" d="M940.44,-320.73C1102.4,-308.17 1575.39,-271.51 1735,-259.13"/>
<polygon fill="black" stroke="black" points="1735.36,-262.62 1745.06,-258.35 1734.81,-255.64 1735.36,-262.62"/>
</g>
<!-- Rest Position start -->
<g id="node4" class="node">
<title>Rest Position start</title>
<ellipse fill="gray" stroke="black" cx="58.31" cy="-172" rx="58.13" ry="18"/>
<text text-anchor="middle" x="58.31" y="-169.8" font-family="Times,serif" font-size="9.00">Rest Position start</text>
</g>
<!-- Move to Object&#45;&gt;Rest Position start -->
<g id="edge3" class="edge">
<title>Move to Object&#45;&gt;Rest Position start</title>
<path fill="none" stroke="black" d="M508.58,-237.97C505.45,-237.24 502.35,-236.58 499.31,-236 335.27,-204.75 287.54,-239.62 125.31,-200 116.28,-197.79 106.85,-194.6 98.02,-191.17"/>
<polygon fill="black" stroke="black" points="99.3,-187.92 88.72,-187.4 96.67,-194.4 99.3,-187.92"/>
</g>
<!-- AruCo detection and approach object -->
<g id="node5" class="node">
<title>AruCo detection and approach object</title>
<polygon fill="gold" stroke="black" points="530.35,-200 215.32,-200 134.27,-144 449.31,-144 530.35,-200"/>
<text text-anchor="middle" x="332.31" y="-174.8" font-family="Times,serif" font-size="9.00">AruCo detection and approach object</text>
<text text-anchor="middle" x="332.31" y="-164.8" font-family="Times,serif" font-size="9.00">SuccessOnOne</text>
</g>
<!-- Move to Object&#45;&gt;AruCo detection and approach object -->
<g id="edge4" class="edge">
<title>Move to Object&#45;&gt;AruCo detection and approach object</title>
<path fill="none" stroke="black" d="M510.11,-235.94C483.44,-226.5 449.5,-214.48 418.43,-203.49"/>
<polygon fill="black" stroke="black" points="419.49,-200.15 408.9,-200.11 417.16,-206.75 419.49,-200.15"/>
</g>
<!-- Track ArUco Pos -->
<g id="node6" class="node">
<title>Track ArUco Pos</title>
<ellipse fill="gray" stroke="black" cx="269.31" cy="-90" rx="54.04" ry="18"/>
<text text-anchor="middle" x="269.31" y="-87.8" font-family="Times,serif" font-size="9.00">Track ArUco Pos</text>
</g>
<!-- AruCo detection and approach object&#45;&gt;Track ArUco Pos -->
<g id="edge5" class="edge">
<title>AruCo detection and approach object&#45;&gt;Track ArUco Pos</title>
<path fill="none" stroke="black" d="M310.98,-143.92C303.84,-134.85 295.92,-124.79 288.92,-115.89"/>
<polygon fill="black" stroke="black" points="291.48,-113.49 282.54,-107.79 285.98,-117.82 291.48,-113.49"/>
</g>
<!-- Approach object -->
<g id="node7" class="node">
<title>Approach object</title>
<polygon fill="orange" stroke="black" points="446.81,-108 341.81,-108 341.81,-72 446.81,-72 446.81,-108"/>
<text text-anchor="middle" x="394.31" y="-87.8" font-family="Times,serif" font-size="9.00">Ⓜ Approach object</text>
</g>
<!-- AruCo detection and approach object&#45;&gt;Approach object -->
<g id="edge6" class="edge">
<title>AruCo detection and approach object&#45;&gt;Approach object</title>
<path fill="none" stroke="black" d="M353.3,-143.92C360.22,-134.98 367.89,-125.09 374.71,-116.3"/>
<polygon fill="black" stroke="black" points="377.57,-118.32 380.93,-108.27 372.03,-114.03 377.57,-118.32"/>
</g>
<!-- Move robot to pick up position -->
<g id="node8" class="node">
<title>Move robot to pick up position</title>
<ellipse fill="gray" stroke="black" cx="296.31" cy="-18" rx="91.44" ry="18"/>
<text text-anchor="middle" x="296.31" y="-15.8" font-family="Times,serif" font-size="9.00">Move robot to pick up position</text>
</g>
<!-- Approach object&#45;&gt;Move robot to pick up position -->
<g id="edge7" class="edge">
<title>Approach object&#45;&gt;Move robot to pick up position</title>
<path fill="none" stroke="black" d="M370.34,-71.88C357.48,-62.69 341.48,-51.26 327.65,-41.38"/>
<polygon fill="black" stroke="black" points="329.54,-38.43 319.36,-35.47 325.47,-44.13 329.54,-38.43"/>
</g>
<!-- Move manipulator to position -->
<g id="node9" class="node">
<title>Move manipulator to position</title>
<ellipse fill="gray" stroke="black" cx="493.31" cy="-18" rx="87.52" ry="18"/>
<text text-anchor="middle" x="493.31" y="-15.8" font-family="Times,serif" font-size="9.00">Move manipulator to position</text>
</g>
<!-- Approach object&#45;&gt;Move manipulator to position -->
<g id="edge8" class="edge">
<title>Approach object&#45;&gt;Move manipulator to position</title>
<path fill="none" stroke="black" d="M418.53,-71.88C431.52,-62.69 447.68,-51.26 461.66,-41.38"/>
<polygon fill="black" stroke="black" points="463.88,-44.1 470.03,-35.47 459.84,-38.38 463.88,-44.1"/>
</g>
<!-- Move EE Down pos1 -->
<g id="node11" class="node">
<title>Move EE Down pos1</title>
<ellipse fill="gray" stroke="black" cx="613.31" cy="-172" rx="64.83" ry="18"/>
<text text-anchor="middle" x="613.31" y="-169.8" font-family="Times,serif" font-size="9.00">Move EE Down pos1</text>
</g>
<!-- Pick up Object&#45;&gt;Move EE Down pos1 -->
<g id="edge10" class="edge">
<title>Pick up Object&#45;&gt;Move EE Down pos1</title>
<path fill="none" stroke="black" d="M779.31,-235.94C744.13,-222.6 695.39,-204.12 659.83,-190.64"/>
<polygon fill="black" stroke="black" points="660.76,-187.25 650.17,-186.97 658.28,-193.79 660.76,-187.25"/>
</g>
<!-- Activate Suction -->
<g id="node12" class="node">
<title>Activate Suction</title>
<ellipse fill="gray" stroke="black" cx="749.31" cy="-172" rx="53.89" ry="18"/>
<text text-anchor="middle" x="749.31" y="-169.8" font-family="Times,serif" font-size="9.00">Activate Suction</text>
</g>
<!-- Pick up Object&#45;&gt;Activate Suction -->
<g id="edge11" class="edge">
<title>Pick up Object&#45;&gt;Activate Suction</title>
<path fill="none" stroke="black" d="M808.04,-235.64C797.41,-224.3 783.38,-209.34 771.7,-196.88"/>
<polygon fill="black" stroke="black" points="774.18,-194.41 764.79,-189.5 769.07,-199.19 774.18,-194.41"/>
</g>
<!-- Move EE High waypoint 1 -->
<g id="node13" class="node">
<title>Move EE High waypoint 1</title>
<ellipse fill="gray" stroke="black" cx="900.31" cy="-172" rx="79.19" ry="18"/>
<text text-anchor="middle" x="900.31" y="-169.8" font-family="Times,serif" font-size="9.00">Move EE High waypoint 1</text>
</g>
<!-- Pick up Object&#45;&gt;Move EE High waypoint 1 -->
<g id="edge12" class="edge">
<title>Pick up Object&#45;&gt;Move EE High waypoint 1</title>
<path fill="none" stroke="black" d="M840.8,-235.64C851.5,-224.38 865.6,-209.54 877.39,-197.13"/>
<polygon fill="black" stroke="black" points="880.02,-199.44 884.37,-189.78 874.95,-194.62 880.02,-199.44"/>
</g>
<!-- Move EE to top of robot -->
<g id="node14" class="node">
<title>Move EE to top of robot</title>
<ellipse fill="gray" stroke="black" cx="1070.31" cy="-172" rx="73.15" ry="18"/>
<text text-anchor="middle" x="1070.31" y="-169.8" font-family="Times,serif" font-size="9.00">Move EE to top of robot</text>
</g>
<!-- Pick up Object&#45;&gt;Move EE to top of robot -->
<g id="edge13" class="edge">
<title>Pick up Object&#45;&gt;Move EE to top of robot</title>
<path fill="none" stroke="black" d="M873.13,-237.3C905.76,-226.79 949.62,-212.62 988.31,-200 998.04,-196.83 1008.41,-193.43 1018.38,-190.15"/>
<polygon fill="black" stroke="black" points="1019.79,-193.37 1028.19,-186.92 1017.6,-186.72 1019.79,-193.37"/>
</g>
<!-- Move robot to drop position -->
<g id="node17" class="node">
<title>Move robot to drop position</title>
<ellipse fill="gray" stroke="black" cx="1246.31" cy="-172" rx="84.09" ry="18"/>
<text text-anchor="middle" x="1246.31" y="-169.8" font-family="Times,serif" font-size="9.00">Move robot to drop position</text>
</g>
<!-- Move to drop off&#45;&gt;Move robot to drop position -->
<g id="edge16" class="edge">
<title>Move to drop off&#45;&gt;Move robot to drop position</title>
<path fill="none" stroke="black" d="M1307.39,-235.64C1296.4,-224.38 1281.94,-209.54 1269.84,-197.13"/>
<polygon fill="black" stroke="black" points="1272.16,-194.49 1262.67,-189.78 1267.14,-199.38 1272.16,-194.49"/>
</g>
<!-- Move EE to front -->
<g id="node18" class="node">
<title>Move EE to front</title>
<ellipse fill="gray" stroke="black" cx="1403.31" cy="-172" rx="54.7" ry="18"/>
<text text-anchor="middle" x="1403.31" y="-169.8" font-family="Times,serif" font-size="9.00">Move EE to front</text>
</g>
<!-- Move to drop off&#45;&gt;Move EE to front -->
<g id="edge17" class="edge">
<title>Move to drop off&#45;&gt;Move EE to front</title>
<path fill="none" stroke="black" d="M1341.45,-235.64C1352.73,-224.22 1367.63,-209.14 1379.98,-196.63"/>
<polygon fill="black" stroke="black" points="1382.74,-198.81 1387.28,-189.23 1377.76,-193.89 1382.74,-198.81"/>
</g>
<!-- Move EE High waypoint 2 -->
<g id="node19" class="node">
<title>Move EE High waypoint 2</title>
<ellipse fill="gray" stroke="black" cx="1555.31" cy="-172" rx="79.19" ry="18"/>
<text text-anchor="middle" x="1555.31" y="-169.8" font-family="Times,serif" font-size="9.00">Move EE High waypoint 2</text>
</g>
<!-- Move to drop off&#45;&gt;Move EE High waypoint 2 -->
<g id="edge18" class="edge">
<title>Move to drop off&#45;&gt;Move EE High waypoint 2</title>
<path fill="none" stroke="black" d="M1373.58,-235.94C1412.06,-222.61 1465.35,-204.16 1504.27,-190.68"/>
<polygon fill="black" stroke="black" points="1505.54,-193.94 1513.84,-187.36 1503.25,-187.33 1505.54,-193.94"/>
</g>
<!-- Move EE Down pos2 -->
<g id="node21" class="node">
<title>Move EE Down pos2</title>
<ellipse fill="gray" stroke="black" cx="1717.31" cy="-172" rx="64.83" ry="18"/>
<text text-anchor="middle" x="1717.31" y="-169.8" font-family="Times,serif" font-size="9.00">Move EE Down pos2</text>
</g>
<!-- Drop Object&#45;&gt;Move EE Down pos2 -->
<g id="edge20" class="edge">
<title>Drop Object&#45;&gt;Move EE Down pos2</title>
<path fill="none" stroke="black" d="M1772.91,-235.64C1763,-224.48 1749.99,-209.82 1739.04,-197.49"/>
<polygon fill="black" stroke="black" points="1741.46,-194.93 1732.2,-189.78 1736.22,-199.58 1741.46,-194.93"/>
</g>
<!-- Deactivate Suction -->
<g id="node22" class="node">
<title>Deactivate Suction</title>
<ellipse fill="gray" stroke="black" cx="1860.31" cy="-172" rx="60.09" ry="18"/>
<text text-anchor="middle" x="1860.31" y="-169.8" font-family="Times,serif" font-size="9.00">Deactivate Suction</text>
</g>
<!-- Drop Object&#45;&gt;Deactivate Suction -->
<g id="edge21" class="edge">
<title>Drop Object&#45;&gt;Deactivate Suction</title>
<path fill="none" stroke="black" d="M1803.94,-235.64C1814.05,-224.41 1827.35,-209.62 1838.5,-197.24"/>
<polygon fill="black" stroke="black" points="1841.37,-199.28 1845.46,-189.5 1836.17,-194.6 1841.37,-199.28"/>
</g>
<!-- Rest Position final -->
<g id="node23" class="node">
<title>Rest Position final</title>
<ellipse fill="gray" stroke="black" cx="1996.31" cy="-172" rx="57.97" ry="18"/>
<text text-anchor="middle" x="1996.31" y="-169.8" font-family="Times,serif" font-size="9.00">Rest Position final</text>
</g>
<!-- Drop Object&#45;&gt;Rest Position final -->
<g id="edge22" class="edge">
<title>Drop Object&#45;&gt;Rest Position final</title>
<path fill="none" stroke="black" d="M1831.61,-237.03C1859.56,-226.64 1896.66,-212.71 1929.31,-200 1937.04,-196.99 1945.24,-193.74 1953.16,-190.56"/>
<polygon fill="black" stroke="black" points="1954.66,-193.73 1962.63,-186.75 1952.05,-187.24 1954.66,-193.73"/>
</g>
</g>
</svg>
